<svg xmlns="http://www.w3.org/2000/svg" width="1600" height="900" viewBox="0 0 1600 900">
  <defs>
    <linearGradient id="bg" x1="0" y1="0" x2="1" y2="1">
      <stop offset="0" stop-color="#0b1220"/>
      <stop offset="1" stop-color="#111827"/>
    </linearGradient>
    <radialGradient id="g1" cx="50%" cy="40%" r="60%">
      <stop offset="0" stop-color="rgba(167,139,250,0.50)"/>
      <stop offset="1" stop-color="rgba(167,139,250,0)"/>
    </radialGradient>
    <radialGradient id="g2" cx="20%" cy="80%" r="60%">
      <stop offset="0" stop-color="rgba(34,197,94,0.45)"/>
      <stop offset="1" stop-color="rgba(34,197,94,0)"/>
    </radialGradient>
  </defs>

  <rect width="1600" height="900" fill="url(#bg)"/>
  <rect width="1600" height="900" fill="url(#g1)"/>
  <rect width="1600" height="900" fill="url(#g2)"/>

  <rect x="260" y="220" width="1080" height="460" rx="48" fill="rgba(255,255,255,0.08)" stroke="rgba(255,255,255,0.18)"/>

  <g>
    <rect x="320" y="280" width="180" height="30" rx="15" fill="rgba(255,255,255,0.14)"/>
    <rect x="320" y="330" width="520" height="16" rx="8" fill="rgba(255,255,255,0.22)"/>
    <rect x="320" y="360" width="720" height="16" rx="8" fill="rgba(255,255,255,0.18)"/>
    <rect x="320" y="390" width="640" height="16" rx="8" fill="rgba(255,255,255,0.18)"/>
    <rect x="320" y="450" width="900" height="14" rx="7" fill="rgba(255,255,255,0.14)"/>
    <rect x="320" y="476" width="820" height="14" rx="7" fill="rgba(255,255,255,0.14)"/>
    <rect x="320" y="502" width="740" height="14" rx="7" fill="rgba(255,255,255,0.14)"/>
  </g>

  <g opacity="0.9">
    <circle cx="1200" cy="320" r="54" fill="rgba(255,255,255,0.08)"/>
    <path d="M1186 320h28M1200 306v28" stroke="rgba(255,255,255,0.55)" stroke-width="6" stroke-linecap="round"/>
  </g>
</svg>

