<svg xmlns="http://www.w3.org/2000/svg" width="1600" height="900" viewBox="0 0 1600 900">
  <defs>
    <linearGradient id="bg" x1="0" y1="0" x2="1" y2="1">
      <stop offset="0" stop-color="#f8fafc"/>
      <stop offset="1" stop-color="#eef2ff"/>
    </linearGradient>
    <linearGradient id="chip" x1="0" y1="0" x2="1" y2="1">
      <stop offset="0" stop-color="#22c55e"/>
      <stop offset="1" stop-color="#a78bfa"/>
    </linearGradient>
  </defs>

  <rect width="1600" height="900" fill="url(#bg)"/>

  <g opacity="0.18">
    <circle cx="420" cy="260" r="220" fill="#22c55e"/>
    <circle cx="1250" cy="520" r="320" fill="#a78bfa"/>
  </g>

  <g>
    <rect x="220" y="210" width="520" height="420" rx="36" fill="rgba(15,23,42,0.06)"/>
    <rect x="860" y="270" width="520" height="360" rx="36" fill="rgba(15,23,42,0.06)"/>
  </g>

  <g fill="rgba(15,23,42,0.10)">
    <rect x="270" y="260" width="220" height="44" rx="22"/>
    <rect x="270" y="320" width="280" height="14" rx="7"/>
    <rect x="270" y="350" width="320" height="14" rx="7"/>
    <rect x="270" y="380" width="250" height="14" rx="7"/>

    <rect x="910" y="320" width="260" height="44" rx="22" fill="url(#chip)"/>
    <rect x="910" y="385" width="340" height="14" rx="7"/>
    <rect x="910" y="415" width="300" height="14" rx="7"/>
    <rect x="910" y="445" width="220" height="14" rx="7"/>
  </g>
</svg>

