<svg xmlns="http://www.w3.org/2000/svg" width="1600" height="900" viewBox="0 0 1600 900">
  <defs>
    <linearGradient id="bg" x1="0" y1="0" x2="1" y2="1">
      <stop offset="0" stop-color="#0f172a"/>
      <stop offset="1" stop-color="#0b1220"/>
    </linearGradient>
    <linearGradient id="acc" x1="0" y1="0" x2="1" y2="0">
      <stop offset="0" stop-color="#22c55e"/>
      <stop offset="1" stop-color="#38bdf8"/>
    </linearGradient>
  </defs>

  <rect width="1600" height="900" fill="url(#bg)"/>

  <g opacity="0.18">
    <circle cx="420" cy="260" r="240" fill="#22c55e"/>
    <circle cx="1220" cy="680" r="280" fill="#38bdf8"/>
  </g>

  <g fill="rgba(255,255,255,0.10)">
    <rect x="260" y="200" width="1080" height="84" rx="42"/>
    <rect x="260" y="320" width="1080" height="84" rx="42"/>
    <rect x="260" y="440" width="1080" height="84" rx="42"/>
    <rect x="260" y="560" width="1080" height="84" rx="42"/>
    <rect x="260" y="680" width="1080" height="84" rx="42"/>
  </g>

  <g>
    <rect x="300" y="236" width="420" height="12" rx="6" fill="rgba(255,255,255,0.22)"/>
    <rect x="300" y="356" width="560" height="12" rx="6" fill="rgba(255,255,255,0.22)"/>
    <rect x="300" y="476" width="520" height="12" rx="6" fill="rgba(255,255,255,0.22)"/>
    <rect x="300" y="596" width="680" height="12" rx="6" fill="rgba(255,255,255,0.22)"/>
    <rect x="300" y="716" width="460" height="12" rx="6" fill="rgba(255,255,255,0.22)"/>
  </g>

  <path d="M1240 240c0 0-20 110-140 120s-160 120-160 120" fill="none" stroke="url(#acc)" stroke-width="10" stroke-linecap="round" opacity="0.75"/>
</svg>

