<svg xmlns="http://www.w3.org/2000/svg" width="1600" height="900" viewBox="0 0 1600 900">
  <defs>
    <linearGradient id="bg" x1="0" y1="0" x2="1" y2="1">
      <stop offset="0" stop-color="#0b1220"/>
      <stop offset="1" stop-color="#0f172a"/>
    </linearGradient>
    <linearGradient id="acc" x1="0" y1="0" x2="1" y2="0">
      <stop offset="0" stop-color="#38bdf8"/>
      <stop offset="1" stop-color="#22c55e"/>
    </linearGradient>
  </defs>

  <rect width="1600" height="900" fill="url(#bg)"/>
  <g opacity="0.18">
    <circle cx="460" cy="520" r="320" fill="#38bdf8"/>
    <circle cx="1180" cy="300" r="260" fill="#22c55e"/>
  </g>

  <g>
    <rect x="260" y="250" width="520" height="400" rx="40" fill="rgba(255,255,255,0.08)" stroke="rgba(255,255,255,0.16)"/>
    <rect x="820" y="250" width="520" height="400" rx="40" fill="rgba(255,255,255,0.08)" stroke="rgba(255,255,255,0.16)"/>
    <path d="M820 450h-40c-40 0-60-20-60-60v-20c0-40-20-60-60-60h-60" fill="none" stroke="url(#acc)" stroke-width="10" stroke-linecap="round" opacity="0.85"/>
  </g>

  <g fill="rgba(255,255,255,0.20)">
    <rect x="320" y="320" width="240" height="16" rx="8"/>
    <rect x="320" y="352" width="360" height="16" rx="8"/>
    <rect x="320" y="384" width="320" height="16" rx="8"/>
    <rect x="320" y="450" width="420" height="12" rx="6" opacity="0.8"/>
    <rect x="320" y="474" width="380" height="12" rx="6" opacity="0.8"/>
  </g>

  <g fill="rgba(255,255,255,0.20)">
    <rect x="880" y="320" width="260" height="16" rx="8"/>
    <rect x="880" y="352" width="360" height="16" rx="8"/>
    <rect x="880" y="384" width="280" height="16" rx="8"/>
    <rect x="880" y="450" width="420" height="12" rx="6" opacity="0.8"/>
    <rect x="880" y="474" width="340" height="12" rx="6" opacity="0.8"/>
  </g>
</svg>

