<svg xmlns="http://www.w3.org/2000/svg" width="1600" height="900" viewBox="0 0 1600 900">
  <defs>
    <linearGradient id="bg" x1="0" y1="0" x2="1" y2="1">
      <stop offset="0" stop-color="#0b1220"/>
      <stop offset="0.55" stop-color="#0f172a"/>
      <stop offset="1" stop-color="#052e1b"/>
    </linearGradient>
    <radialGradient id="glow" cx="30%" cy="20%" r="60%">
      <stop offset="0" stop-color="rgba(52,211,153,0.55)"/>
      <stop offset="1" stop-color="rgba(52,211,153,0)"/>
    </radialGradient>
    <radialGradient id="glow2" cx="80%" cy="70%" r="60%">
      <stop offset="0" stop-color="rgba(56,189,248,0.45)"/>
      <stop offset="1" stop-color="rgba(56,189,248,0)"/>
    </radialGradient>
  </defs>

  <rect width="1600" height="900" fill="url(#bg)"/>
  <rect width="1600" height="900" fill="url(#glow)"/>
  <rect width="1600" height="900" fill="url(#glow2)"/>

  <g opacity="0.35" stroke="rgba(255,255,255,0.35)">
    <path d="M120 220c220-110 420-110 640 0s420 110 640 0" fill="none" stroke-width="2"/>
    <path d="M120 280c220-110 420-110 640 0s420 110 640 0" fill="none" stroke-width="2" opacity="0.7"/>
    <path d="M120 340c220-110 420-110 640 0s420 110 640 0" fill="none" stroke-width="2" opacity="0.5"/>
  </g>

  <g opacity="0.22">
    <rect x="240" y="520" width="1120" height="180" rx="36" fill="rgba(255,255,255,0.08)"/>
    <rect x="300" y="570" width="420" height="18" rx="9" fill="rgba(255,255,255,0.20)"/>
    <rect x="300" y="610" width="680" height="12" rx="6" fill="rgba(255,255,255,0.14)"/>
    <rect x="300" y="636" width="520" height="12" rx="6" fill="rgba(255,255,255,0.14)"/>
  </g>
</svg>

