<svg xmlns="http://www.w3.org/2000/svg" width="1600" height="900" viewBox="0 0 1600 900">
  <defs>
    <linearGradient id="bg" x1="0" y1="0" x2="1" y2="1">
      <stop offset="0" stop-color="#fff7ed"/>
      <stop offset="1" stop-color="#f0fdf4"/>
    </linearGradient>
    <linearGradient id="acc" x1="0" y1="0" x2="1" y2="1">
      <stop offset="0" stop-color="#f97316"/>
      <stop offset="1" stop-color="#22c55e"/>
    </linearGradient>
  </defs>

  <rect width="1600" height="900" fill="url(#bg)"/>
  <g opacity="0.12">
    <circle cx="400" cy="220" r="260" fill="#f97316"/>
    <circle cx="1220" cy="620" r="320" fill="#22c55e"/>
  </g>

  <rect x="300" y="220" width="1000" height="460" rx="48" fill="rgba(15,23,42,0.06)"/>
  <g transform="translate(420 340)">
    <circle cx="60" cy="300" r="36" fill="url(#acc)"/>
    <path d="M60 210c84 0 150 66 150 150" fill="none" stroke="url(#acc)" stroke-width="24" stroke-linecap="round"/>
    <path d="M60 120c134 0 240 106 240 240" fill="none" stroke="url(#acc)" stroke-width="24" stroke-linecap="round" opacity="0.8"/>
  </g>

  <g fill="rgba(15,23,42,0.12)">
    <rect x="780" y="330" width="420" height="16" rx="8"/>
    <rect x="780" y="362" width="340" height="16" rx="8"/>
    <rect x="780" y="420" width="460" height="14" rx="7"/>
    <rect x="780" y="446" width="520" height="14" rx="7"/>
    <rect x="780" y="472" width="480" height="14" rx="7"/>
  </g>
</svg>

